# ProBuilder 4.2.3
# https://unity3d.com/unity/features/worldbuilding/probuilder
# 20.02.2021 20:14:37

mtllib ./2.mtl
o 2

g 2
v 0.4856939 0.9375572 -0.4250755
v -0.5143063 0.9375572 -0.4250755
v 0.4856939 1.510246 -0.4250755
v -0.5143061 1.510246 -0.4250755
v -0.5143063 0.9375572 -1.425075
v -0.514306 1.847181 -1.425076
v 0.4856939 0.9375572 -1.425075
v 0.4856939 1.847181 -1.425076
v 0.514307 -2.849029 -1.336033
v -0.5143069 -2.849029 -1.336033
v 0.514307 -2.794642 -0.8062305
v -0.5143069 -2.794642 -0.8062305
v 0.4856939 1.984074 -0.2654266
v -0.5143061 1.984074 -0.2654266
v 0.4856939 2.321008 -1.265427
v -0.514306 2.321008 -1.265427
v 0.5143069 2.189455 -0.1057778
v -0.5143062 2.189455 -0.1057778
v 0.5143069 2.840398 -0.9203494
v -0.5143062 2.840398 -0.9203495
v 0.514307 2.198086 0.2665566
v -0.5143064 2.198086 0.2665566
v 0.514307 2.849029 0.7546024
v -0.5143067 2.849029 0.7546024
v 0.514307 1.630564 0.7880097
v -0.5143069 1.630564 0.7880097
v 0.514307 2.281507 1.276056
v -0.5143069 2.281507 1.276056
v 0.514307 1.037673 0.7971174
v -0.5143069 1.037673 0.7971174
v 0.514307 1.014856 1.294058
v -0.5143069 1.014856 1.294058
v 0.514307 0.395783 0.7741838
v -0.5143069 0.395783 0.7741838
v 0.514307 -0.0896582 1.303987
v -0.5143069 -0.0896582 1.303987
v 0.514307 -1.06402 -1.043801
v -0.5143069 -1.06402 -1.043801
v 0.514307 -1.549461 -0.5139982
v -0.5143069 -1.549461 -0.5139982
v 0.514307 -1.570551 -1.381583
v -0.5143069 -1.570551 -1.381583
v 0.514307 -2.055993 -0.8517804
v -0.5143069 -2.055993 -0.8517804
v -0.5143069 -2.025218 1.379526
v 0.514307 -2.025218 1.379526
v -0.5143069 -2.763867 1.425076
v 0.514307 -2.763867 1.425076

vt 0.4856939 0.9375572
vt -0.5143063 0.9375572
vt 0.4856939 1.510246
vt -0.5143061 1.510246
vt -0.4250755 0.937557
vt -1.425075 0.937557
vt -0.4250755 1.510246
vt -1.425076 1.847181
vt 0.5143063 0.9375576
vt -0.4856939 0.9375576
vt 0.514306 1.847181
vt -0.4856939 1.847181
vt 1.425075 0.9375572
vt 0.4250755 0.9375572
vt 1.425076 1.847181
vt 0.4250755 1.510246
vt 0.514307 -1.61999
vt -0.5143069 -1.61999
vt 0.514307 -1.087403
vt -0.5143069 -1.087403
vt 0.4856939 -1.425075
vt -0.5143063 -1.425075
vt 0.4856939 -0.4250755
vt -0.5143063 -0.4250755
vt 0.4856939 1.295466
vt -0.5143061 1.295466
vt 0.4856939 1.795466
vt -0.5143061 1.795466
vt 1.265427 2.321008
vt 0.2654266 1.984074
vt -0.2654266 1.984074
vt -1.265427 2.321008
vt 0.514306 1.295466
vt -0.4856939 1.295466
vt 0.514306 1.795466
vt -0.4856939 1.795466
vt 0.4856939 1.403575
vt -0.5143061 1.403575
vt 0.5143069 1.663708
vt -0.5143062 1.663708
vt 1.257916 2.341359
vt 0.2580307 2.004083
vt 0.9124442 2.861274
vt 0.0979663 2.210434
vt -0.1057777 2.189455
vt -0.9203494 2.840398
vt 0.514306 1.232954
vt -0.4856939 1.232954
vt 0.5143062 1.856527
vt -0.5143069 1.856527
vt 0.5143069 -0.05500561
vt -0.5143062 -0.05500561
vt 0.514307 0.3174288
vt -0.5143064 0.3174288
vt 0.9203494 2.840398
vt 0.1057778 2.189455
vt -0.7546024 2.849029
vt -0.2665566 2.198086
vt 0.2665569 2.198087
vt 0.7546027 2.84903
vt 0.5143062 -0.9056997
vt -0.5143069 -0.9056996
vt 0.5143067 0.7692744
vt -0.514307 0.7692744
vt -0.514307 1.438239
vt 0.5143064 1.438239
vt -0.514307 0.6675284
vt 0.5143069 0.6675284
vt -1.276056 2.281507
vt -0.7880097 1.630564
vt 0.7880101 1.630564
vt 1.276056 2.281507
vt -0.5143067 1.587364
vt 0.514307 1.587364
vt -0.5143069 0.8166528
vt 0.514307 0.8166528
vt -0.514307 1.618268
vt 0.5143069 1.618268
vt -0.514307 1.025307
vt 0.5143069 1.025307
vt -1.294058 1.014856
vt -0.7971174 1.037673
vt 0.7971174 1.037673
vt 1.294058 1.014856
vt -0.5143069 2.263143
vt 0.514307 2.263143
vt -0.5143069 0.9963641
vt 0.514307 0.9963641
vt -0.514307 1.065473
vt 0.5143069 1.065473
vt -0.514307 0.4231732
vt 0.5143069 0.4231732
vt -1.303987 -0.0896582
vt -0.7741838 0.395783
vt 0.7741838 0.395783
vt 1.303987 -0.0896582
vt -0.5143069 1.003182
vt 0.514307 1.003182
vt -0.5143069 -0.101377
vt 0.514307 -0.101377
vt -0.514307 0.8514617
vt 0.5143069 0.8514617
vt -0.514307 -1.480082
vt 0.5143069 -1.480082
vt 0.5139982 -1.549461
vt 1.043801 -1.06402
vt -1.043801 -1.06402
vt -0.5139982 -1.549461
vt -0.5143069 0.9606283
vt 0.514307 0.9606283
vt -0.5143069 -1.370915
vt 0.514307 -1.370915
vt -0.514307 -1.464351
vt 0.5143069 -1.464351
vt -0.514307 -2.073178
vt 0.5143069 -2.073178
vt 0.8517804 -2.055993
vt 1.381583 -1.570551
vt -1.381583 -1.570551
vt -0.8517804 -2.055993
vt -0.5143069 -1.574289
vt 0.514307 -1.574289
vt -0.5143069 -2.183116
vt 0.514307 -2.183116
vt -0.514307 -1.520363
vt 0.5143069 -1.520363
vt -0.514307 -2.799652
vt 0.5143069 -2.799652
vt 0.8062305 -2.794642
vt 1.336033 -2.849029
vt -1.336033 -2.849029
vt -0.8062305 -2.794642
vt -0.5143069 -2.106287
vt 0.514307 -2.106287
vt -0.5143069 -2.846339
vt 0.514307 -2.846339
vt 0.5143069 -0.8800536
vt -0.514307 -0.8800536
vt 0.5143069 1.351465
vt -0.514307 1.351465
vt 1.425076 -2.763867
vt 1.379526 -2.025218
vt -1.379526 -2.025218
vt -1.425076 -2.763867
vt 0.514307 -0.8446947
vt -0.5143069 -0.8446947
vt 0.514307 1.386824
vt -0.5143069 1.386824

vn 0 0 1
vn -1 4.163142E-07 0
vn 0 -2.621068E-07 -1
vn 1 0 0
vn 0 -0.9947721 0.1021196
vn 0 -1 0
vn 0 -0.3192977 0.9476545
vn 0 0.3192978 -0.9476544
vn 0 -0.6137203 0.7895235
vn 0.9988738 -0.04496247 -0.01514941
vn 0.9964389 -0.06519116 -0.0417052
vn 0.994004 -0.08541986 -0.06826099
vn 0 0.5533867 -0.8329244
vn 0 -0.9997314 0.02317645
vn 5.972369E-10 0.9999867 -0.005153337
vn 0 -0.6765875 -0.7363623
vn 0 0.6765873 0.7363625
vn 0 -0.01535972 -0.999882
vn 0 0.01421088 0.999899
vn 0 0.03570544 -0.9993623
vn 0 0.008989702 0.9999596
vn 0 0.7797347 -0.6261101
vn 0 -0.7797347 0.6261101
vn 0 0.5548076 -0.8319787
vn 0 -0.5548078 0.8319786
vn 0 -0.03560571 -0.9993659
vn 0 0.06154953 0.998104
vn 0 0.9999049 -0.01379098
vn 0 -0.9999049 0.01379098

usemtl 2
f 3/3/1 4/4/1 2/2/1 1/1/1
f 4/7/2 6/8/2 5/6/2 2/5/2
f 6/11/3 8/12/3 7/10/3 5/9/3
f 8/15/4 3/16/4 1/14/4 7/13/4
f 11/19/5 12/20/5 10/18/5 9/17/5
f 1/23/6 2/24/6 5/22/6 7/21/6
f 13/27/7 14/28/7 4/26/7 3/25/7
f 15/29/4 13/30/4 3/16/4 8/15/4
f 14/31/2 16/32/2 6/8/2 4/7/2
f 16/35/8 15/36/8 8/34/8 6/33/8
f 17/39/9 18/40/9 14/38/9 13/37/9
f 19/43/11 17/44/12 13/42/11 15/41/10
f 18/45/2 20/46/2 16/32/2 14/31/2
f 20/49/13 19/50/13 15/48/13 16/47/13
f 21/53/14 22/54/14 18/52/14 17/51/14
f 23/57/4 21/58/4 17/56/4 19/55/4
f 22/59/2 24/60/2 20/46/2 18/45/2
f 24/63/15 23/64/15 19/62/15 20/61/15
f 25/67/16 26/68/16 22/66/16 21/65/16
f 27/69/4 25/70/4 21/58/4 23/57/4
f 26/71/2 28/72/2 24/60/2 22/59/2
f 28/75/17 27/76/17 23/74/17 24/73/17
f 29/79/18 30/80/18 26/78/18 25/77/18
f 31/81/4 29/82/4 25/70/4 27/69/4
f 30/83/2 32/84/2 28/72/2 26/71/2
f 32/87/19 31/88/19 27/86/19 28/85/19
f 33/91/20 34/92/20 30/90/20 29/89/20
f 35/93/4 33/94/4 29/82/4 31/81/4
f 34/95/2 36/96/2 32/84/2 30/83/2
f 36/99/21 35/100/21 31/98/21 32/97/21
f 37/103/22 38/104/22 34/102/22 33/101/22
f 39/105/4 37/106/4 33/94/4 35/93/4
f 38/107/2 40/108/2 36/96/2 34/95/2
f 40/111/23 39/112/23 35/110/23 36/109/23
f 41/115/24 42/116/24 38/114/24 37/113/24
f 43/117/4 41/118/4 37/106/4 39/105/4
f 42/119/2 44/120/2 40/108/2 38/107/2
f 44/123/25 43/124/25 39/122/25 40/121/25
f 9/127/26 10/128/26 42/126/26 41/125/26
f 11/129/4 9/130/4 41/118/4 43/117/4
f 10/131/2 12/132/2 44/120/2 42/119/2
f 47/135/27 48/136/27 46/134/27 45/133/27
f 45/139/28 46/140/28 43/138/28 44/137/28
f 47/141/2 45/142/2 44/120/2 12/132/2
f 46/143/4 48/144/4 11/129/4 43/117/4
f 48/147/29 47/148/29 12/146/29 11/145/29

