# ProBuilder 4.2.3
# https://unity3d.com/unity/features/worldbuilding/probuilder
# 20.02.2021 20:14:53

mtllib ./4.mtl
o 4

g 4
v 0.4999999 0.6196231 -0.5565314
v -0.5000001 0.6196231 -0.5565314
v 0.5000001 0.6196231 -1.283418
v -0.5 0.6196231 -1.283418
v 0.5000001 -0.3401328 -1.556531
v -0.5 -0.3401328 -1.556531
v 0.5000001 -0.2934883 -0.5565314
v -0.5 -0.2934883 -0.5565314
v 0.5000001 -0.32095 1.556531
v -0.5 -0.32095 1.556531
v -0.5 -0.1561518 1.556531
v 0.5000001 -0.1561518 1.556531
v -0.5 -0.1561516 -0.5565314
v 0.5000001 -0.1561516 -0.5565314
v -0.5 -0.1561516 -1.283418
v 0.5000001 -0.1561516 -1.283418
v -0.5 -0.3209499 0.9664198
v 0.5000001 -0.3209499 0.9664198
v -0.5 -0.1561517 0.9664198
v 0.5000001 -0.1561517 0.9664198
v 0.5000001 -0.6196231 0.9664198
v 0.5000001 -0.6196231 0.4837699
v -0.5 -0.6196231 0.4837699
v -0.5 -0.6196231 0.9664198
v 0.5000001 -0.3337325 0.4837699
v -0.5 -0.3337325 0.4837699
v -0.5 -0.1561516 0.4837699
v 0.5000001 -0.1561516 0.4837699
v 0.5000001 0.02352437 0.4837699
v 0.5000001 0.02352437 0.9664198
v -0.5 0.02352437 0.9664198
v -0.5 0.02352437 0.4837699

vt -0.4999999 -0.5565314
vt 0.5000001 -0.5565314
vt -0.5000001 -1.283418
vt 0.5 -1.283418
vt 0.5000001 -1.570689
vt -0.5 -1.570689
vt 0.5000001 -0.5696017
vt -0.5 -0.5696017
vt 0.5000001 -0.32095
vt -0.5 -0.32095
vt -0.5 -0.1561518
vt 0.5000001 -0.1561518
vt -0.5000001 0.6196232
vt 0.4999999 0.6196232
vt -0.5565314 -0.2934883
vt -1.556531 -0.3401328
vt -1.283418 -0.1561516
vt -0.5565314 -0.1561516
vt -1.283418 0.6196231
vt -0.5565314 0.6196231
vt 0.5 -1.031427
vt -0.5000001 -1.031427
vt -0.5000001 -0.7407168
vt 0.5 -0.7407168
vt -0.5000001 -0.0558566
vt 0.5 -0.0558566
vt 1.556531 -0.3401328
vt 0.5565314 -0.2934884
vt 0.5565314 -0.1561516
vt 1.283418 -0.1561516
vt 0.5565315 0.6196231
vt 1.283418 0.6196231
vt -0.5 0.9724437
vt -0.5 1.562445
vt 0.5000001 1.562445
vt 0.5000001 0.9724437
vt 0.9664198 -0.1561517
vt 1.556531 -0.1561518
vt 1.556531 -0.32095
vt 0.9664198 -0.3209499
vt -0.9664198 -0.3209499
vt -1.556531 -0.32095
vt -1.556531 -0.1561518
vt -0.9664198 -0.1561517
vt -0.5000001 0.9664198
vt -0.5000001 1.556531
vt 0.5 1.556531
vt 0.5 0.9664198
vt 0.5000001 0.4837699
vt -0.5 0.4837699
vt 0.5000001 0.4901311
vt 0.5000001 -0.5507537
vt -0.5 -0.5507537
vt -0.5 0.4901311
vt 0.4837699 -0.3337325
vt 0.4837699 -0.1561516
vt -0.4837699 -0.3337325
vt -0.4837699 -0.1561516
vt -0.5000001 -0.5565314
vt 0.5 0.02352437
vt -0.5000001 0.02352437
vt -0.4837699 0.02352437
vt -0.9664198 0.02352437
vt 0.9664198 0.02352437
vt 0.4837699 0.02352437
vt -0.9664198 -0.6196231
vt -0.4837699 -0.6196231
vt -0.5 -0.6196231
vt 0.5000001 -0.6196231
vt -0.5000001 -0.3337325
vt 0.5 -0.3337325
vt 0.4837699 -0.6196231
vt 0.9664198 -0.6196231

vn 0 1 0
vn 0 -0.9989139 0.0465938
vn 0 0 1
vn -1 0 0
vn 0 0.8293697 -0.5587002
vn 0 0 -1
vn 1 0 0
vn 0 -1 -1.515086E-07
vn 0 -0.9992526 -0.03865619

usemtl 4
f 3/3/1 4/4/1 2/2/1 1/1/1
f 7/7/2 8/8/2 6/6/2 5/5/2
f 12/12/3 11/11/3 10/10/3 9/9/3
f 1/14/3 2/13/3 13/11/3 14/12/3
f 13/18/4 15/17/4 6/16/4 8/15/4
f 2/20/4 4/19/4 15/17/4 13/18/4
f 6/21/5 15/24/5 16/23/5 5/22/5
f 15/24/6 4/26/6 3/25/6 16/23/6
f 5/27/7 16/30/7 14/29/7 7/28/7
f 16/30/7 3/32/7 1/31/7 14/29/7
f 10/34/8 17/33/8 18/36/8 9/35/8
f 17/40/4 10/39/4 11/38/4 19/37/4
f 12/43/7 9/42/7 18/41/7 20/44/7
f 11/47/1 12/46/1 20/45/1 19/48/1
f 24/45/8 23/50/8 22/49/8 21/48/8
f 26/54/9 8/53/9 7/52/9 25/51/9
f 26/55/4 17/40/4 19/37/4 27/56/4
f 13/18/4 8/15/4 26/55/4 27/56/4
f 28/58/7 25/57/7 7/28/7 14/29/7
f 20/44/7 18/41/7 25/57/7 28/58/7
f 27/49/1 28/50/1 14/59/1 13/2/1
f 31/48/1 30/45/1 29/50/1 32/49/1
f 32/60/6 29/61/6 28/11/6 27/12/6
f 29/62/7 30/63/7 20/44/7 28/58/7
f 31/64/4 32/65/4 27/56/4 19/37/4
f 30/60/3 31/61/3 19/11/3 20/12/3
f 21/66/7 22/67/7 25/57/7 18/41/7
f 24/68/3 21/69/3 18/9/3 17/10/3
f 22/68/6 23/69/6 26/71/6 25/70/6
f 23/72/4 24/73/4 17/40/4 26/55/4

