# ProBuilder 4.2.3
# https://unity3d.com/unity/features/worldbuilding/probuilder
# 20.02.2021 20:14:58

mtllib ./5.mtl
o 5

g 5
v 0.116993 0.2962452 0.3908154
v -0.116993 0.2962452 0.3908154
v 0.116993 0.4615203 0.3908154
v -0.116993 0.4615203 0.3908154
v -0.116993 0.2962452 -0.3908154
v 0.116993 0.2962452 -0.3908154
v -0.116993 0.4615203 -0.3908154
v 0.116993 0.4615203 -0.3908154
v -0.116993 0.2962452 -0.1634845
v -0.116993 0.4615203 -0.1085556
v 0.116993 0.2962452 -0.1634845
v 0.116993 0.4615203 -0.1085556
v 0.116993 -0.3055714 -0.3706173
v -0.116993 -0.3055714 -0.3706173
v -0.116993 -0.4615203 -0.1250061
v 0.116993 -0.4615203 -0.1250061
v -0.116993 -0.04544842 -0.3908154
v -0.116993 0.05662978 -0.1634845
v 0.116993 0.05662978 -0.1634845
v 0.116993 -0.04544842 -0.3908154
v -0.116993 -0.03397948 -0.00357157
v -0.116993 0.08175486 0.2063186
v 0.116993 0.08175486 0.2063186
v 0.116993 -0.03397948 -0.00357157
v -0.116993 -0.112226 0.1567544
v -0.116993 0.003508329 0.3666445
v 0.116993 0.003508329 0.3666445
v 0.116993 -0.112226 0.1567544
v -0.116993 -0.2895703 0.1127399
v -0.116993 -0.4455192 0.3583511
v 0.116993 -0.4455192 0.3583511
v 0.116993 -0.2895703 0.1127399

vt 0.116993 0.2962452
vt -0.116993 0.2962452
vt 0.116993 0.4615203
vt -0.116993 0.4615203
vt 0.3908154 0.2962452
vt -0.1634845 0.2962452
vt -0.1085556 0.4615203
vt 0.3908154 0.4615203
vt -0.3908154 0.2962452
vt -0.3908154 0.4615203
vt 0.1634845 0.2962452
vt 0.1085556 0.4615203
vt -0.116993 0.3908154
vt 0.116993 0.3908154
vt 0.116993 -0.1085556
vt -0.116993 -0.1085556
vt 0.116993 -0.3908154
vt -0.116993 -0.3908154
vt 0.116993 -0.1490841
vt -0.116993 -0.1490841
vt -0.116993 0.1418539
vt 0.116993 0.1418539
vt -0.116993 -0.1634845
vt 0.116993 -0.1634845
vt -0.3908154 -0.04544842
vt -0.1634845 0.05662978
vt -0.116993 0.05662978
vt 0.116993 0.05662978
vt 0.1634845 0.05662978
vt 0.3908154 -0.04544842
vt -0.116993 -0.04544842
vt 0.116993 -0.04544842
vt -0.00357157 -0.03397948
vt 0.2063186 0.08175486
vt 0.116993 -0.1592698
vt -0.116993 -0.1592698
vt 0.116993 0.2113858
vt -0.116993 0.2113858
vt -0.2063186 0.08175486
vt 0.00357157 -0.03397948
vt 0.116993 -0.3919895
vt -0.116993 -0.3919895
vt 0.116993 -0.004575929
vt -0.116993 -0.004575929
vt 0.1567544 -0.112226
vt 0.3666445 0.003508329
vt 0.116993 0.1495573
vt -0.116993 0.1495573
vt 0.116993 0.3279584
vt -0.116993 0.3279584
vt -0.3666445 0.003508329
vt -0.1567544 -0.112226
vt 0.116993 0.01169365
vt -0.116993 0.01169365
vt 0.116993 0.1900947
vt -0.116993 0.1900947
vt 0.1127399 -0.2895703
vt 0.3583511 -0.4455192
vt -0.116993 0.01027838
vt 0.116993 0.01027838
vt -0.116993 -0.4388258
vt 0.116993 -0.4388258
vt -0.3583511 -0.4455192
vt -0.1127399 -0.2895703
vt -0.116993 -0.07116269
vt 0.116993 -0.07116269
vt -0.116993 -0.2538873
vt 0.116993 -0.2538873
vt -0.3706173 -0.3055714
vt -0.1250061 -0.4615203
vt -0.116993 0.3434145
vt 0.116993 0.3434145
vt -0.116993 -0.1402075
vt 0.116993 -0.1402075
vt 0.1250061 -0.4615203
vt 0.3706173 -0.3055714
vt -0.116993 0.1030975
vt 0.116993 0.1030975
vt -0.116993 -0.3805245
vt 0.116993 -0.3805245

vn 0 0 1
vn 0 0 -1
vn -1 0 0
vn 1 0 0
vn 0 1 0
vn 0 -0.8442047 -0.5360211
vn 0 -1 0
vn 0 0.9976999 -0.06778554
vn 0 -0.9995617 0.02960388
vn 0 0.8986828 0.4385991
vn 0 -0.8986829 -0.438599
vn 0 -0.01846652 0.9998295
vn 0 0.2408789 -0.9705552
vn 0 -0.9994525 0.03308592
vn 0 0.9994525 -0.03308592

usemtl 5
f 3/3/1 4/4/1 2/2/1 1/1/1
f 7/3/2 8/4/2 6/2/2 5/1/2
f 4/8/3 10/7/3 9/6/3 2/5/3
f 10/7/3 7/10/3 5/9/3 9/6/3
f 6/5/4 8/8/4 12/12/4 11/11/4
f 11/11/4 12/12/4 3/10/4 1/9/4
f 4/14/5 3/13/5 12/16/5 10/15/5
f 10/15/5 12/16/5 8/18/5 7/17/5
f 13/19/6 16/22/6 15/21/6 14/20/6
f 11/24/7 1/14/7 2/13/7 9/23/7
f 17/25/3 18/26/3 9/6/3 5/9/3
f 18/27/1 19/28/1 11/1/1 9/2/1
f 19/29/4 20/30/4 6/5/4 11/11/4
f 20/31/2 17/32/2 5/1/2 6/2/2
f 21/33/3 22/34/3 18/26/3 17/25/3
f 22/37/8 23/38/8 19/36/8 18/35/8
f 23/39/4 24/40/4 20/30/4 19/29/4
f 24/43/9 21/44/9 17/42/9 20/41/9
f 25/45/3 26/46/3 22/34/3 21/33/3
f 26/49/10 27/50/10 23/48/10 22/47/10
f 27/51/4 28/52/4 24/40/4 23/39/4
f 28/55/11 25/56/11 21/54/11 24/53/11
f 29/57/3 30/58/3 26/46/3 25/45/3
f 30/61/12 31/62/12 27/60/12 26/59/12
f 31/63/4 32/64/4 28/52/4 27/51/4
f 32/67/13 29/68/13 25/66/13 28/65/13
f 14/69/3 15/70/3 30/58/3 29/57/3
f 15/73/14 16/74/14 31/72/14 30/71/14
f 16/75/4 13/76/4 32/64/4 31/63/4
f 13/79/15 14/80/15 29/78/15 32/77/15

