# ProBuilder 4.2.3
# https://unity3d.com/unity/features/worldbuilding/probuilder
# 20.02.2021 20:15:15

mtllib ./8.mtl
o 8

g 8
v 0.0865593 0.1485074 0.3833847
v -0.0865593 0.1485074 0.3833847
v 0.0865593 0.3514927 0.3833847
v -0.0865593 0.3514927 0.3833847
v -0.0865593 0.1485074 -0.3833845
v 0.0865593 0.1485074 -0.3833845
v -0.0865593 0.3514927 -0.3833845
v 0.0865593 0.3514927 -0.3833845
v -0.0865593 0.1485074 -0.2845574
v -0.0865593 0.3514927 -0.2845574
v 0.0865593 0.1485074 -0.2845574
v 0.0865593 0.3514927 -0.2845574
v 0.0865593 -0.3514926 -0.3833845
v -0.0865593 -0.3514926 -0.3833845
v -0.0865593 -0.3514926 -0.2845574
v 0.0865593 -0.3514926 -0.2845574
v -0.0865593 0.1485074 0.2729499
v -0.0865593 0.3514927 0.2729499
v 0.0865593 0.3514927 0.2729499
v 0.0865593 0.1485074 0.2729499
v -0.0865593 -0.3514926 0.2729499
v -0.0865593 -0.3514926 0.3833847
v 0.0865593 -0.3514926 0.3833847
v 0.0865593 -0.3514926 0.2729499
v -0.0865593 -0.2270676 -0.2845574
v -0.0865593 -0.2270676 -0.3833845
v 0.0865593 -0.2270676 -0.2845574
v 0.0865593 -0.2270676 0.280473
v 0.0865593 -0.3514926 0.280473
v -0.0865593 -0.3514926 0.280473
v -0.0865593 -0.2270676 0.280473
v 0.0865593 -0.2270676 -0.3833845
v -0.0865593 -0.2211096 0.3833847
v -0.0865593 -0.2211096 0.2729499
v 0.0865593 -0.2211096 0.3833847
v 0.0865593 -0.2211096 0.2729499
v 0.0865593 -0.7615178 0.3833846
v -0.0865593 -0.7615178 0.3833846
v 0.0865593 -0.9645031 0.3833846
v -0.0865593 -0.9645031 0.3833846
v -0.0865593 -0.7615178 -0.3833846
v 0.0865593 -0.7615178 -0.3833846
v -0.0865593 -0.9645031 -0.3833846
v 0.0865593 -0.9645031 -0.3833846
v -0.0865593 -0.7615178 -0.2845573
v -0.0865593 -0.9645031 -0.2845573
v 0.0865593 -0.7615178 -0.2845573
v 0.0865593 -0.9645031 -0.2845573
v 0.0865593 -0.2615179 -0.3833846
v -0.0865593 -0.2615179 -0.3833846
v -0.0865593 -0.2615179 -0.2845573
v 0.0865593 -0.2615179 -0.2845573
v -0.0865593 -0.7615178 0.27295
v -0.0865593 -0.9645031 0.27295
v 0.0865593 -0.9645031 0.27295
v 0.0865593 -0.7615178 0.27295
v -0.0865593 -0.2615179 0.27295
v -0.0865593 -0.2615179 0.3833846
v 0.0865593 -0.2615179 0.3833846
v 0.0865593 -0.2615179 0.27295
v -0.0865593 -0.385943 -0.2845573
v -0.0865593 -0.385943 -0.3833846
v 0.0865593 -0.385943 -0.2845573
v 0.0865593 -0.385943 0.280473
v 0.0865593 -0.2615179 0.280473
v -0.0865593 -0.2615179 0.280473
v -0.0865593 -0.385943 0.280473
v 0.0865593 -0.385943 -0.3833846
v -0.0865593 -0.3919007 0.3833846
v -0.0865593 -0.3919007 0.27295
v 0.0865593 -0.3919007 0.3833846
v 0.0865593 -0.3919007 0.27295

vt 0.0865593 0.1485074
vt -0.0865593 0.1485074
vt 0.0865593 0.3514927
vt -0.0865593 0.3514927
vt -0.2845574 0.1485074
vt -0.3833845 0.1485074
vt -0.3833845 0.3514927
vt -0.2845574 0.3514927
vt 0.3833845 0.1485074
vt 0.2845574 0.1485074
vt 0.2845574 0.3514927
vt 0.3833845 0.3514927
vt 0.0865593 -0.2845574
vt 0.0865593 -0.3833845
vt -0.0865593 -0.3833845
vt -0.0865593 -0.2845574
vt 0.2729499 0.1485074
vt 0.2729499 0.3514927
vt -0.2729499 0.3514927
vt -0.2729499 0.1485074
vt -0.0865593 0.2729499
vt 0.0865593 0.2729499
vt -0.0865593 0.3833847
vt 0.0865593 0.3833847
vt -0.2845574 -0.2270676
vt -0.3833845 -0.2270676
vt -0.2845574 -0.3514926
vt -0.3833845 -0.3514926
vt 0.0865593 -0.2270676
vt -0.0865593 -0.2270676
vt 0.0865593 -0.3514926
vt -0.0865593 -0.3514926
vt 0.3833845 -0.2270676
vt 0.2845574 -0.2270676
vt 0.3833845 -0.3514926
vt 0.2845574 -0.3514926
vt 0.3833847 -0.2211096
vt 0.2729499 -0.2211096
vt 0.2729499 -0.3514926
vt 0.0865593 -0.2211096
vt -0.0865593 -0.2211096
vt -0.2729499 -0.2211096
vt -0.3833847 -0.2211096
vt -0.2729499 -0.3514926
vt 0.0865593 0.280473
vt -0.0865593 0.280473
vt 0.280473 -0.3514926
vt 0.280473 -0.2270676
vt -0.280473 -0.2270676
vt -0.280473 -0.3514926
vt 0.0865593 -0.1485074
vt -0.0865593 -0.1485074
vt -0.2845573 -0.7615178
vt -0.3833846 -0.7615178
vt -0.3833846 -0.9645031
vt -0.2845573 -0.9645031
vt 0.3833846 -0.7615178
vt 0.2845573 -0.7615178
vt 0.2845573 -0.9645031
vt 0.3833846 -0.9645031
vt 0 0
vt 0.27295 -0.7615178
vt 0.27295 -0.9645031
vt -0.27295 -0.9645031
vt -0.27295 -0.7615178
vt -0.2845573 -0.385943
vt -0.3833846 -0.385943
vt -0.2845573 -0.2615179
vt -0.3833846 -0.2615179
vt -0.0865593 -0.7615178
vt 0.0865593 -0.7615178
vt 0.0865593 -0.385943
vt -0.0865593 -0.385943
vt 0.0865593 0.2270676
vt -0.0865593 0.2270676
vt 0.3833846 -0.385943
vt 0.2845573 -0.385943
vt 0.3833846 -0.2615179
vt 0.2845573 -0.2615179
vt 0.0865593 -0.2615179
vt -0.0865593 -0.2615179
vt 0.3833846 -0.3919007
vt 0.27295 -0.3919007
vt 0.27295 -0.2615179
vt 0.0865593 -0.3919007
vt -0.0865593 -0.3919007
vt -0.27295 -0.3919007
vt -0.3833846 -0.3919007
vt -0.27295 -0.2615179
vt -0.2845574 0.2270676
vt 0.280473 0.3514926
vt 0.280473 0.2270676
vt 0.2845574 0.2270676
vt -0.280473 0.2270676
vt -0.280473 0.3514926

vn 0 0 1
vn 0 0 -1
vn -1 0 0
vn 1 0 0
vn 0 1 0
vn 0 -1 0

usemtl 8
f 3/3/1 4/4/1 2/2/1 1/1/1
f 7/3/2 8/4/2 6/2/2 5/1/2
f 10/8/3 7/7/3 5/6/3 9/5/3
f 6/9/4 8/12/4 12/11/4 11/10/4
f 10/13/5 12/16/5 8/15/5 7/14/5
f 13/14/6 16/13/6 15/16/6 14/15/6
f 4/12/3 18/18/3 17/17/3 2/9/3
f 18/18/3 10/8/3 9/5/3 17/17/3
f 20/20/4 19/19/4 3/7/4 1/6/4
f 11/10/4 12/11/4 19/19/4 20/20/4
f 18/22/5 19/21/5 12/16/5 10/13/5
f 4/24/5 3/23/5 19/21/5 18/22/5
f 11/13/6 20/22/6 17/21/6 9/16/6
f 24/22/6 23/24/6 22/23/6 21/21/6
f 9/5/3 5/6/3 26/26/3 25/25/3
f 25/25/3 26/26/3 14/28/3 15/27/3
f 11/1/1 9/2/1 25/30/1 27/29/1
f 28/29/1 31/30/1 30/32/1 29/31/1
f 32/33/4 6/9/4 11/10/4 27/34/4
f 13/35/4 32/33/4 27/34/4 16/36/4
f 26/29/2 5/1/2 6/2/2 32/30/2
f 14/31/2 26/29/2 32/30/2 13/32/2
f 2/9/3 17/17/3 34/38/3 33/37/3
f 33/37/3 34/38/3 21/39/3 22/35/3
f 1/1/1 2/2/1 33/41/1 35/40/1
f 35/40/1 33/41/1 22/32/1 23/31/1
f 35/43/4 36/42/4 20/20/4 1/6/4
f 23/28/4 24/44/4 36/42/4 35/43/4
f 34/40/2 17/1/2 20/2/2 36/41/2
f 21/31/2 34/40/2 36/41/2 24/32/2
f 29/45/6 30/46/6 15/16/6 16/13/6
f 30/47/3 31/48/3 25/25/3 15/27/3
f 28/49/4 29/50/4 16/36/4 27/34/4
f 31/45/5 28/46/5 27/16/5 25/13/5
f 37/51/1 38/52/1 40/32/1 39/31/1
f 41/51/2 42/52/2 44/32/2 43/31/2
f 41/54/3 43/55/3 46/56/3 45/53/3
f 48/59/4 44/60/4 42/57/4 47/58/4
f 44/61/6 48/61/6 46/61/6 43/61/6
f 51/13/5 52/16/5 49/15/5 50/14/5
f 53/62/3 54/63/3 40/60/3 38/57/3
f 45/53/3 46/56/3 54/63/3 53/62/3
f 39/55/4 55/64/4 56/65/4 37/54/4
f 55/64/4 48/59/4 47/58/4 56/65/4
f 48/61/6 55/61/6 54/61/6 46/61/6
f 55/61/6 39/61/6 40/61/6 54/61/6
f 53/61/5 56/61/5 47/61/5 45/61/5
f 58/24/5 59/23/5 60/21/5 57/22/5
f 62/67/3 41/54/3 45/53/3 61/66/3
f 50/69/3 62/67/3 61/66/3 51/68/3
f 61/73/1 45/70/1 47/71/1 63/72/1
f 66/4/1 67/75/1 64/74/1 65/3/1
f 47/58/4 42/57/4 68/76/4 63/77/4
f 63/77/4 68/76/4 49/78/4 52/79/4
f 42/70/2 41/71/2 62/72/2 68/73/2
f 68/73/2 62/72/2 50/80/2 49/81/2
f 69/82/3 70/83/3 53/62/3 38/57/3
f 58/78/3 57/84/3 70/83/3 69/82/3
f 69/86/1 38/70/1 37/71/1 71/85/1
f 58/81/1 69/86/1 71/85/1 59/80/1
f 37/54/4 56/65/4 72/87/4 71/88/4
f 71/88/4 72/87/4 60/89/4 59/69/4
f 56/70/2 53/71/2 70/85/2 72/86/2
f 72/86/2 70/85/2 57/80/2 60/81/2
f 52/16/5 51/13/5 66/45/5 65/46/5
f 51/8/3 61/90/3 67/92/3 66/91/3
f 63/93/4 52/11/4 65/95/4 64/94/4
f 61/16/6 63/13/6 64/45/6 67/46/6

