# ProBuilder 4.2.3
# https://unity3d.com/unity/features/worldbuilding/probuilder
# 20.02.2021 20:15:41

mtllib ./Cross.mtl
o Cross

g Cross
v 0.1543388 0.3715458 -0.1555755
v -0.1543388 0.3715458 -0.1555755
v 0.1543388 -0.3715456 0.3511755
v -0.1543388 -0.3715456 0.3511755
v -0.1543388 0.3715458 -0.3511755
v -0.1543388 -0.3715456 0.1555755
v 0.1543388 0.3715458 -0.3511755
v 0.1543388 -0.3715456 0.1555755
v 0.1543388 -0.3715458 -0.1555755
v -0.1543388 -0.3715458 -0.1555755
v 0.1543388 0.3715456 0.3511755
v -0.1543388 0.3715456 0.3511755
v -0.1543388 -0.3715458 -0.3511755
v -0.1543388 0.3715456 0.1555755
v 0.1543388 -0.3715458 -0.3511755
v 0.1543388 0.3715456 0.1555755

vt 0.1543388 0.3946154
vt -0.1543388 0.3946154
vt 0.1543388 -0.5048185
vt -0.1543388 -0.5048185
vt -0.1555755 0.3715458
vt -0.3511755 0.3715458
vt 0.3511755 -0.3715456
vt 0.1555755 -0.3715456
vt 0.1543388 0.5048187
vt -0.1543388 0.5048187
vt 0.1543388 -0.3946153
vt -0.1543388 -0.3946153
vt 0.3511755 0.3715458
vt 0.1555755 0.3715458
vt -0.1555755 -0.3715456
vt -0.3511755 -0.3715456
vt 0.1543388 0.3511755
vt -0.1543388 0.3511755
vt 0.1543388 0.1555755
vt -0.1543388 0.1555755
vt -0.1543388 -0.3511755
vt 0.1543388 -0.3511755
vt -0.1543388 -0.1555755
vt 0.1543388 -0.1555755

vn 0 0.5634111 0.8261767
vn -1 0 0
vn 0 -0.5634111 -0.8261767
vn 1 0 0
vn 0 -1 0
vn 0 1 0
vn 0 -0.5634111 0.8261767
vn 0 0.5634111 -0.8261767

usemtl sqrt
f 1/1/1 2/2/1 4/4/1 3/3/1
f 2/5/2 5/6/2 6/8/2 4/7/2
f 5/9/3 7/10/3 8/12/3 6/11/3
f 7/13/4 1/14/4 3/16/4 8/15/4
f 3/17/5 4/18/5 6/20/5 8/19/5
f 7/21/6 5/22/6 2/24/6 1/23/6
f 11/9/7 12/10/7 10/12/7 9/11/7
f 12/13/2 14/14/2 13/16/2 10/15/2
f 14/1/8 16/2/8 15/4/8 13/3/8
f 16/5/4 11/6/4 9/8/4 15/7/4
f 16/20/6 14/19/6 12/17/6 11/18/6
f 9/24/5 10/23/5 13/21/5 15/22/5

