# ProBuilder 4.2.3
# https://unity3d.com/unity/features/worldbuilding/probuilder
# 21.02.2021 21:06:01

mtllib ./Cube.mtl
o Cube

g Cube
v 0 0 0
v -0.2097893 0 0
v 0 0.1877615 0
v -0.2097893 0.1877615 0
v -0.2097893 0 -0.1909647
v -0.2097893 0.1877615 -0.1909647
v -0.2097893 0 -1.190965
v 0 0 -1.190965
v -0.2097893 0.1877615 -1.190965
v 0 0.1877615 -1.190965
v 0 0 -0.1909647
v 0 0.1877615 -0.1909647
v -0.2097893 0 -0.6909647
v 0 0 -0.6909647
v -0.2097893 0.1877615 -0.6909647
v 0 0.1877615 -0.6909647

vt 0 0
vt -0.2097893 0
vt 0 0.1877615
vt -0.2097893 0.1877615
vt -0.1909647 0
vt -0.1909647 0.1877615
vt 0.2097893 0
vt 0.2097893 0.1877615
vt 0.1909647 0
vt 0.1909647 0.1877615
vt 0 -0.1909647
vt 0.2097893 -0.1909647
vt -0.2097893 -0.1909647
vt -0.2097893 -0.6909647
vt 0 -0.6909647
vt -0.6909647 0.1877615
vt -0.6909647 0
vt 0.6909647 0
vt 0.6909647 0.1877615
vt 0.2097893 -0.6909647
vt -0.2097893 -1.190965
vt 0 -1.190965
vt -1.190965 0.1877615
vt -1.190965 0
vt 1.190965 0
vt 1.190965 0.1877615
vt 0.2097893 -1.190965

vn 0 0 1
vn -1 0 0
vn 0 0 -1
vn 1 0 0
vn 0 1 0
vn 0 -1 0

usemtl ProBuilderDefault
f 3/3/1 4/4/1 2/2/1 1/1/1
f 4/3/2 6/6/2 5/5/2 2/1/2
f 9/8/3 10/3/3 8/1/3 7/7/3
f 12/10/4 3/3/4 1/1/4 11/9/4
f 12/11/5 6/12/5 4/7/5 3/1/5
f 1/1/6 2/2/6 5/13/6 11/11/6
f 13/14/6 14/15/6 11/11/6 5/13/6
f 15/16/2 13/17/2 5/5/2 6/6/2
f 14/18/4 16/19/4 12/10/4 11/9/4
f 16/15/5 15/20/5 6/12/5 12/11/5
f 7/21/6 8/22/6 14/15/6 13/14/6
f 9/23/2 7/24/2 13/17/2 15/16/2
f 8/25/4 10/26/4 16/19/4 14/18/4
f 10/22/5 9/27/5 15/20/5 16/15/5

